<svg width="40" height="40" viewBox="0 0 40 40" fill="none" xmlns="http://www.w3.org/2000/svg">
<path d="M34.1667 11.6667H5.83333C5.61232 11.6667 5.40036 11.5789 5.24408 11.4226C5.0878 11.2663 5 11.0544 5 10.8333V9.16668C5 8.94566 5.0878 8.7337 5.24408 8.57742C5.40036 8.42114 5.61232 8.33334 5.83333 8.33334H34.1667C34.3877 8.33334 34.5996 8.42114 34.7559 8.57742C34.9122 8.7337 35 8.94566 35 9.16668V10.8333C35 11.0544 34.9122 11.2663 34.7559 11.4226C34.5996 11.5789 34.3877 11.6667 34.1667 11.6667ZM35 20.8333V19.1667C35 18.9457 34.9122 18.7337 34.7559 18.5774C34.5996 18.4211 34.3877 18.3333 34.1667 18.3333H5.83333C5.61232 18.3333 5.40036 18.4211 5.24408 18.5774C5.0878 18.7337 5 18.9457 5 19.1667V20.8333C5 21.0544 5.0878 21.2663 5.24408 21.4226C5.40036 21.5789 5.61232 21.6667 5.83333 21.6667H34.1667C34.3877 21.6667 34.5996 21.5789 34.7559 21.4226C34.9122 21.2663 35 21.0544 35 20.8333ZM35 30.8333V29.1667C35 28.9457 34.9122 28.7337 34.7559 28.5774C34.5996 28.4211 34.3877 28.3333 34.1667 28.3333H5.83333C5.61232 28.3333 5.40036 28.4211 5.24408 28.5774C5.0878 28.7337 5 28.9457 5 29.1667V30.8333C5 31.0544 5.0878 31.2663 5.24408 31.4226C5.40036 31.5789 5.61232 31.6667 5.83333 31.6667H34.1667C34.3877 31.6667 34.5996 31.5789 34.7559 31.4226C34.9122 31.2663 35 31.0544 35 30.8333Z" fill="#1E1E1F"/>
</svg>
