<svg width="32" height="32" viewBox="0 0 32 32" fill="none" xmlns="http://www.w3.org/2000/svg">
<path d="M16 2.66675C13.3629 2.66675 10.785 3.44873 8.59239 4.91382C6.39974 6.37891 4.69077 8.46129 3.6816 10.8976C2.67243 13.334 2.40839 16.0149 2.92286 18.6013C3.43733 21.1877 4.70721 23.5635 6.57191 25.4282C8.43661 27.2929 10.8124 28.5627 13.3988 29.0772C15.9852 29.5917 18.6661 29.3276 21.1024 28.3185C23.5388 27.3093 25.6212 25.6003 27.0863 23.4077C28.5513 21.215 29.3333 18.6372 29.3333 16.0001C29.3333 14.2491 28.9885 12.5153 28.3184 10.8976C27.6483 9.27996 26.6662 7.81011 25.4281 6.57199C24.19 5.33388 22.7201 4.35175 21.1024 3.68169C19.4848 3.01162 17.751 2.66675 16 2.66675ZM26.6667 16.0001C25.1398 15.5416 23.5542 15.3081 21.96 15.3067C21.0115 15.3194 20.0659 15.4131 19.1333 15.5867C18.8 14.7734 18.4533 13.9867 18.08 13.2001C20.2727 12.1045 22.2723 10.6589 24 8.92008C25.7306 10.8711 26.6802 13.3922 26.6667 16.0001ZM22.4933 7.56008C20.9401 9.13687 19.1383 10.4477 17.16 11.4401C16.0746 9.41609 14.8307 7.48116 13.44 5.65341C14.2774 5.44433 15.1369 5.33689 16 5.33341C18.3507 5.33987 20.6334 6.12265 22.4933 7.56008ZM11.4933 6.34675C12.9384 8.21075 14.2272 10.1908 15.3467 12.2667C13.0047 13.1813 10.5141 13.6559 8 13.6667C7.21134 13.6581 6.42365 13.6092 5.64 13.5201C6.01399 11.9614 6.73444 10.5071 7.74781 9.26524C8.76118 8.02335 10.0414 7.0258 11.4933 6.34675ZM5.33333 16.0001V15.4934C6.21783 15.6058 7.1084 15.6637 8 15.6667C10.8287 15.6587 13.6299 15.1112 16.2533 14.0534C16.5733 14.7201 16.8933 15.3867 17.1733 16.0801C13.3873 17.2435 10.1547 19.7462 8.08 23.1201C6.31772 21.1667 5.33951 18.6309 5.33333 16.0001ZM9.57333 24.4934C11.4023 21.3285 14.3753 18.9854 17.88 17.9467C18.8175 20.5374 19.4833 23.2185 19.8667 25.9467C18.1722 26.6134 16.3342 26.8311 14.5308 26.5788C12.7275 26.3265 11.0198 25.6128 9.57333 24.5067V24.4934ZM21.7467 24.9734C21.3378 22.429 20.7043 19.9259 19.8533 17.4934C20.5512 17.3933 21.255 17.3398 21.96 17.3334C23.4918 17.335 25.0134 17.5826 26.4667 18.0667C26.1859 19.4766 25.6231 20.8152 24.812 22.0021C24.0009 23.189 22.9582 24.1997 21.7467 24.9734Z" fill="white"/>
</svg>
