<svg width="32" height="32" viewBox="0 0 32 32" fill="none" xmlns="http://www.w3.org/2000/svg">
<path fill-rule="evenodd" clip-rule="evenodd" d="M28 6.66667V25.3333C28 26.0406 27.719 26.7189 27.219 27.219C26.7189 27.719 26.0406 28 25.3333 28H20.3333C20.1565 28 19.987 27.9298 19.8619 27.8047C19.7369 27.6797 19.6667 27.5101 19.6667 27.3333V19.3333H22.7867C22.9404 19.3334 23.0893 19.2803 23.2084 19.1831C23.3274 19.0859 23.4093 18.9506 23.44 18.8L23.92 16.4C23.9298 16.3521 23.9289 16.3027 23.9175 16.2551C23.906 16.2076 23.8842 16.1632 23.8537 16.125C23.8232 16.0869 23.7846 16.0559 23.7408 16.0343C23.6969 16.0127 23.6489 16.001 23.6 16H19.6667V11.6667C19.6667 11.5783 19.7018 11.4935 19.7643 11.431C19.8268 11.3685 19.9116 11.3333 20 11.3333H23.3333C23.5101 11.3333 23.6797 11.2631 23.8047 11.1381C23.9298 11.013 24 10.8435 24 10.6667V8.66667C24 8.48986 23.9298 8.32029 23.8047 8.19526C23.6797 8.07024 23.5101 8 23.3333 8H20C18.9391 8 17.9217 8.42143 17.1716 9.17157C16.4214 9.92172 16 10.9391 16 12V16H14.36C14.1832 16 14.0136 16.0702 13.8886 16.1953C13.7636 16.3203 13.6933 16.4899 13.6933 16.6667V18.6667C13.6933 18.8435 13.7636 19.013 13.8886 19.1381C14.0136 19.2631 14.1832 19.3333 14.36 19.3333H16V27.3333C16 27.5101 15.9298 27.6797 15.8047 27.8047C15.6797 27.9298 15.5101 28 15.3333 28H6.66667C5.95942 28 5.28115 27.719 4.78105 27.219C4.28095 26.7189 4 26.0406 4 25.3333V6.66667C4 5.95942 4.28095 5.28115 4.78105 4.78105C5.28115 4.28095 5.95942 4 6.66667 4H25.3333C26.0406 4 26.7189 4.28095 27.219 4.78105C27.719 5.28115 28 5.95942 28 6.66667Z" fill="white"/>
</svg>
