<svg width="90" height="90" viewBox="0 0 90 90" fill="none" xmlns="http://www.w3.org/2000/svg">
<path d="M59.5582 79.5423C69.498 79.5423 79.5423 69.498 79.5423 59.5582C79.5423 58.184 80.5487 57.0732 81.9229 57.0732C83.2971 57.0732 84.5122 58.184 84.5122 59.5581C84.5122 74.468 74.468 84.5122 59.5582 84.5122C58.184 84.5122 57.0732 83.2971 57.0732 81.9229C57.0732 80.5487 58.184 79.5423 59.5582 79.5423Z" fill="black"/>
<path d="M72.3745 84.9641C79.9283 84.9641 84.9641 79.9283 84.9641 72.3745C84.9641 70.982 86.0897 69.8565 87.4821 69.8565C88.8745 69.8565 90 70.982 90 72.3745C90 82.4462 82.4462 90 72.3745 90C70.982 90 69.8565 88.8745 69.8565 87.4821C69.8565 86.0896 70.982 84.9641 72.3745 84.9641ZM29.5696 4.39025C30.9595 4.39025 32.0875 5.51828 32.0875 6.90818C32.0875 8.29808 30.9595 9.42612 29.5696 9.42612C19.4978 9.42612 9.4261 18.463 9.4261 29.5696C9.4261 30.9595 8.29807 32.0875 6.90817 32.0875C5.51827 32.0875 4.39024 30.9595 4.39024 29.5696C4.39024 15.6857 14.462 4.39025 29.5696 4.39025Z" fill="black"/>
<path d="M17.2733 2.17031e-07C18.6437 9.72299e-08 19.7559 1.00791 19.7559 2.37828C19.7559 3.74864 18.6437 4.96509 17.2733 4.96509C9.82568 4.96509 4.96485 10.4888 4.96485 17.2736C4.96485 18.6439 3.75089 19.7561 2.37804 19.7561C1.00519 19.7561 -0.000238696 18.6439 -0.000238816 17.2736C-0.000239649 7.74803 7.34313 1.08516e-06 17.2733 2.17031e-07Z" fill="black"/>
<g clip-path="url(#clip0)">
<path d="M18.0916 30.3808C19.137 28.994 20.67 28.0823 22.38 27.8533C24.102 27.6035 25.7984 28.0577 27.1477 29.1132C28.509 30.1479 29.3923 31.6807 29.5958 33.4014L30.1817 38.135L42.1277 17.444C43.9351 14.3134 47.905 13.2329 50.9654 14.9998C52.006 15.6006 52.8177 16.4563 53.355 17.4576C55.407 15.2698 58.7082 14.6878 61.3401 16.2074C63.9925 17.7387 65.1187 20.8769 64.2416 23.7153C65.3774 23.68 66.5243 23.9551 67.5648 24.5559C70.6457 26.3346 71.6625 30.3218 69.867 33.4317L67.8561 36.9147C68.9151 36.918 70.0093 37.1904 70.9886 37.7558C74.0574 39.5552 75.0947 43.5542 73.2992 46.6641L59.067 71.315C55.9069 76.7884 50.7033 80.3355 45.0221 81.506C44.3662 81.6526 42.3936 82.0065 40.7337 81.9603L40.7456 81.9396C37.2603 81.9453 33.7175 81.0609 30.4939 79.1997C27.2498 77.3268 24.6429 74.633 22.8426 71.4374L21.0314 67.1298C20.7966 66.3585 20.6266 65.5692 20.4686 64.7592C20.4601 64.7267 20.4721 64.706 20.4637 64.6735L16.7993 35.1634C16.5719 33.484 17.0461 31.7675 18.0916 30.3808ZM20.0899 34.7411L23.7578 64.198C24.656 69.333 27.7219 73.7292 32.1697 76.2972C40.5144 81.115 51.3149 78.1454 56.2226 69.6451L70.4428 45.0149C71.3166 43.5015 70.8106 41.5507 69.3212 40.6908C67.8318 39.8309 65.8895 40.3681 65.0157 41.8816L57.714 54.5284C57.2472 55.337 56.2437 55.6145 55.4479 55.1551C54.6522 54.6957 54.3908 53.6878 54.8576 52.8793L67.0191 31.8151C67.8929 30.3016 67.3869 28.3509 65.8975 27.491C64.4081 26.631 62.4657 27.1682 61.5919 28.6817L49.4305 49.7459C48.9637 50.5545 47.9601 50.832 47.1644 50.3726C46.3687 49.9132 46.1073 48.9053 46.5741 48.0968L60.8063 23.4458C61.6801 21.9324 61.1742 19.9816 59.6848 19.1217C58.1954 18.2618 56.253 18.799 55.3792 20.3125L41.147 44.9634C40.6801 45.772 39.6766 46.0495 38.8809 45.5901C38.0852 45.1307 37.8238 44.1228 38.2906 43.3143L50.452 22.2501C51.3258 20.7366 50.8198 18.7859 49.3304 17.926C47.841 17.066 45.8987 17.6032 45.0249 19.1167L30.6131 44.0786C30.254 44.7006 29.5432 45.0365 28.8438 44.8815C28.1528 44.759 27.6196 44.1748 27.5396 43.4651L26.3544 33.8797C26.2407 33.0401 25.8237 32.3017 25.1695 31.7858C24.5152 31.2698 23.6814 31.0649 22.8468 31.1912C22.0122 31.3174 21.2739 31.7481 20.7529 32.4149C20.2115 33.0698 19.9762 33.9015 20.0899 34.7411Z" fill="black"/>
<path d="M22.8016 71.4138C22.822 71.4255 22.81 71.4463 22.8304 71.458L22.8389 71.4906C22.8389 71.4906 22.8304 71.4581 22.8016 71.4138Z" fill="black"/>
<path d="M21.1242 67.4874C21.0905 67.3574 21.0448 67.2481 21.0314 67.1298L21.0399 67.1623C21.0652 67.2599 21.0785 67.3781 21.1242 67.4874Z" fill="black"/>
<path d="M22.8015 71.4138C22.5948 71.018 21.5646 68.9857 21.1239 67.4873C21.0782 67.378 21.0648 67.2598 21.0395 67.1622L22.8507 71.4698C22.8303 71.458 22.8219 71.4255 22.8015 71.4138Z" fill="black"/>
</g>
<defs>
<clipPath id="clip0">
<rect width="56" height="70" transform="matrix(-0.866025 -0.5 -0.5 0.866025 83.4976 29)" fill="white"/>
</clipPath>
</defs>
</svg>
