<svg width="32" height="32" viewBox="0 0 32 32" fill="none" xmlns="http://www.w3.org/2000/svg">
<path d="M21.3333 4H10.6667C8.89856 4 7.20286 4.70238 5.95262 5.95262C4.70238 7.20286 4 8.89856 4 10.6667V21.3333C4 23.1014 4.70238 24.7971 5.95262 26.0474C7.20286 27.2976 8.89856 28 10.6667 28H21.3333C23.1014 28 24.7971 27.2976 26.0474 26.0474C27.2976 24.7971 28 23.1014 28 21.3333V10.6667C28 8.89856 27.2976 7.20286 26.0474 5.95262C24.7971 4.70238 23.1014 4 21.3333 4ZM25.6667 21.3333C25.6632 22.4815 25.2055 23.5817 24.3936 24.3936C23.5817 25.2055 22.4815 25.6632 21.3333 25.6667H10.6667C9.51848 25.6632 8.41832 25.2055 7.60642 24.3936C6.79453 23.5817 6.33685 22.4815 6.33333 21.3333V10.6667C6.33685 9.51848 6.79453 8.41832 7.60642 7.60642C8.41832 6.79453 9.51848 6.33685 10.6667 6.33333H21.3333C22.4815 6.33685 23.5817 6.79453 24.3936 7.60642C25.2055 8.41832 25.6632 9.51848 25.6667 10.6667V21.3333ZM23.6667 9.66667C23.6667 9.93038 23.5885 10.1882 23.442 10.4074C23.2955 10.6267 23.0872 10.7976 22.8436 10.8985C22.5999 10.9994 22.3319 11.0258 22.0732 10.9744C21.8146 10.9229 21.577 10.7959 21.3905 10.6095C21.2041 10.423 21.0771 10.1854 21.0256 9.92679C20.9742 9.66815 21.0006 9.40006 21.1015 9.15642C21.2024 8.91279 21.3733 8.70455 21.5926 8.55804C21.8118 8.41153 22.0696 8.33333 22.3333 8.33333C22.687 8.33333 23.0261 8.47381 23.2761 8.72386C23.5262 8.97391 23.6667 9.31305 23.6667 9.66667ZM16 10C14.8133 10 13.6533 10.3519 12.6666 11.0112C11.6799 11.6705 10.9108 12.6075 10.4567 13.7039C10.0026 14.8003 9.88378 16.0067 10.1153 17.1705C10.3468 18.3344 10.9182 19.4035 11.7574 20.2426C12.5965 21.0818 13.6656 21.6532 14.8295 21.8847C15.9933 22.1162 17.1997 21.9974 18.2961 21.5433C19.3925 21.0892 20.3295 20.3201 20.9888 19.3334C21.6481 18.3467 22 17.1867 22 16C22.0018 15.2116 21.8478 14.4306 21.5469 13.7018C21.246 12.9731 20.8041 12.3109 20.2466 11.7534C19.6891 11.1959 19.0269 10.754 18.2982 10.4531C17.5694 10.1522 16.7884 9.99824 16 10ZM16 19.6667C15.2748 19.6667 14.5659 19.4516 13.9629 19.0487C13.3599 18.6458 12.89 18.0732 12.6124 17.4032C12.3349 16.7332 12.2623 15.9959 12.4038 15.2847C12.5453 14.5734 12.8945 13.9201 13.4073 13.4073C13.9201 12.8945 14.5734 12.5453 15.2847 12.4038C15.9959 12.2623 16.7332 12.3349 17.4032 12.6124C18.0732 12.89 18.6458 13.3599 19.0487 13.9629C19.4516 14.5659 19.6667 15.2748 19.6667 16C19.6667 16.9725 19.2804 17.9051 18.5927 18.5927C17.9051 19.2804 16.9725 19.6667 16 19.6667Z" fill="white"/>
</svg>
