<svg width="32" height="32" viewBox="0 0 32 32" fill="none" xmlns="http://www.w3.org/2000/svg">
<path d="M9.99999 12.6667V26C9.99999 26.1768 9.92975 26.3464 9.80473 26.4714C9.6797 26.5964 9.51014 26.6667 9.33332 26.6667H5.99999C5.82318 26.6667 5.65361 26.5964 5.52859 26.4714C5.40356 26.3464 5.33332 26.1768 5.33332 26V12.6667C5.33332 12.4899 5.40356 12.3203 5.52859 12.1953C5.65361 12.0702 5.82318 12 5.99999 12H9.33332C9.51014 12 9.6797 12.0702 9.80473 12.1953C9.92975 12.3203 9.99999 12.4899 9.99999 12.6667ZM28 17.88C28.0223 16.4788 27.5651 15.112 26.7043 14.0063C25.8434 12.9005 24.6305 12.122 23.2667 11.8C22.3386 11.6002 21.3763 11.6254 20.46 11.8736C19.5438 12.1218 18.7003 12.5858 18 13.2267V12.6667C18 12.4899 17.9298 12.3203 17.8047 12.1953C17.6797 12.0702 17.5101 12 17.3333 12H14C13.8232 12 13.6536 12.0702 13.5286 12.1953C13.4036 12.3203 13.3333 12.4899 13.3333 12.6667V26C13.3333 26.1768 13.4036 26.3464 13.5286 26.4714C13.6536 26.5964 13.8232 26.6667 14 26.6667H17.3333C17.5101 26.6667 17.6797 26.5964 17.8047 26.4714C17.9298 26.3464 18 26.1768 18 26V18.48C17.984 17.8313 18.1972 17.1977 18.6019 16.6905C19.0067 16.1833 19.5772 15.835 20.2133 15.7067C20.5995 15.64 20.9956 15.6593 21.3734 15.7631C21.7513 15.8669 22.1016 16.0527 22.3995 16.3073C22.6974 16.5619 22.9355 16.8791 23.0969 17.2362C23.2583 17.5932 23.339 17.9815 23.3333 18.3733V26C23.3333 26.1768 23.4036 26.3464 23.5286 26.4714C23.6536 26.5964 23.8232 26.6667 24 26.6667H27.3333C27.5101 26.6667 27.6797 26.5964 27.8047 26.4714C27.9298 26.3464 28 26.1768 28 26V17.88ZM7.33332 4C6.80591 4 6.29033 4.1564 5.8518 4.44941C5.41327 4.74243 5.07148 5.15891 4.86965 5.64618C4.66781 6.13345 4.615 6.66962 4.7179 7.18691C4.82079 7.70419 5.07477 8.17934 5.44771 8.55228C5.82065 8.92522 6.2958 9.1792 6.81308 9.28209C7.33037 9.38499 7.86654 9.33218 8.35381 9.13035C8.84108 8.92851 9.25756 8.58672 9.55058 8.14819C9.84359 7.70966 9.99999 7.19408 9.99999 6.66667C9.99999 5.95942 9.71904 5.28115 9.21894 4.78105C8.71885 4.28095 8.04057 4 7.33332 4Z" fill="white"/>
</svg>
