<svg width="48" height="48" viewBox="0 0 48 48" fill="none" xmlns="http://www.w3.org/2000/svg">
<g clip-path="url(#clip0)">
<path d="M23.8771 30.3608C27.1544 30.3608 29.8113 27.6645 29.8113 24.3385C29.8113 21.0125 27.1544 18.3163 23.8771 18.3163C20.5997 18.3163 17.9429 21.0125 17.9429 24.3385C17.9429 27.6645 20.5997 30.3608 23.8771 30.3608Z" fill="#4BB697"/>
<path d="M40.3453 19.9555L37.2553 16.7127L36.1668 12.294L31.883 11.0468L28.793 7.80401L24.474 8.90868L20.1902 7.66147L16.9949 10.7973L12.6408 11.8664L11.4119 16.2138L8.21653 19.3497L9.30505 23.7327L8.07608 28.0802L11.1661 31.3229L12.2546 35.706L16.5384 36.9532L19.6284 40.196L23.9473 39.0913L28.2312 40.3385L31.4265 37.2027L35.7454 36.098L36.9744 31.7506L40.1697 28.6147L39.0812 24.2316L40.3453 19.9555ZM23.9122 34.8508C18.1887 34.8508 13.5187 30.1114 13.5187 24.3029C13.5187 18.4944 18.1887 13.755 23.9122 13.755C29.6357 13.755 34.3058 18.4944 34.3058 24.3029C34.3058 30.1114 29.6708 34.8508 23.9122 34.8508Z" fill="#4BB697"/>
<path d="M41.7849 0H6.21507C2.77396 0 0 2.81514 0 6.30735V41.6927C0 45.1849 2.77396 48 6.21507 48H35.7103C36.3775 48 37.0095 47.608 37.2904 46.9666C38.1331 45.2205 37.1149 43.6882 35.7805 42.5479C35.4645 42.2984 35.0783 42.1559 34.692 42.1559H8.84857C7.19824 42.1559 5.86394 40.8018 5.86394 39.127V8.87305C5.86394 7.19822 7.19824 5.8441 8.84857 5.8441H39.1865C40.8369 5.8441 42.1712 7.19822 42.1712 8.87305V39.0913C42.1712 40.3742 41.3987 41.4432 40.3102 41.9065C39.9942 42.049 39.9239 42.441 40.1346 42.6548C41.4689 44.0445 41.5391 45.8263 41.188 47.3942C41.1178 47.6793 41.3285 47.9644 41.6445 47.9644H41.82C45.2612 47.9644 48.0351 45.1492 48.0351 41.657V6.30735C48 2.81514 45.226 0 41.7849 0Z" fill="#4BB697"/>
</g>
<defs>
<clipPath id="clip0">
<rect width="48" height="48" fill="white"/>
</clipPath>
</defs>
</svg>
